<?xml version="1.0" encoding="utf-8"?>
<!-- Generator: Adobe Illustrator 22.1.0, SVG Export Plug-In . SVG Version: 6.00 Build 0)  -->
<svg version="1.1" id="Layer_1" xmlns="http://www.w3.org/2000/svg" xmlns:xlink="http://www.w3.org/1999/xlink" x="0px" y="0px"
	 viewBox="0 0 400 200" style="enable-background:new 0 0 400 200;" xml:space="preserve">
<style type="text/css">
	.st0{fill:#FFFFFF;}
	.st1{fill:#FFB700;}
</style>
<path class="st0" d="M202.1,69.2c-2.2,0-4,1.6-4.2,4c0.2,2.2,2,4,4.4,3.8c2.2-0.2,3.8-1.8,3.8-3.8C206.1,70.8,204.3,69,202.1,69.2"
	/>
<path class="st1" d="M79.4,66.4c-17.8,0-32.2,14.4-32.2,32.2c0,8.8,3.6,17.4,10.2,23.4v14.2l9-8.2c16.2,7.2,35.2,0,42.3-16.2
	s0-35.2-16.2-42.3C88.4,67.4,83.8,66.4,79.4,66.4 M95.6,100.2c0,9.4-7.6,14.2-15.2,14.2h-0.2h-0.4c-7.6,0-15.2-4.8-15.2-14.2V88.4
	c0-1.6,1.2-3.2,3-3.2c0.2,0,0.2,0,0.4,0c1.8-0.2,3.2,1.2,3.4,2.8v0.2V100c0,4.4,3.8,8,8.2,8h0.2l0,0c0.2,0,0.4,0,0.6,0
	c4.4,0.2,8.2-3.4,8.4-7.8V100V88.4c0-1.8,1.4-3.2,3.2-3.2h0.2c1.6-0.2,3.2,1,3.4,2.8c0,0.2,0,0.2,0,0.4V100.2L95.6,100.2z"/>
<path class="st0" d="M135.8,81.2h-0.6H135c-8.6,0-17.4,5.6-17.4,16.4v13.6c0,2,1.4,3.6,3.4,3.6c0.2,0,0.4,0,0.4,0
	c2,0.2,3.8-1.4,4-3.4c0-0.2,0-0.2,0-0.4V97.4c0-5.2,4.4-9.4,9.4-9.2h0.2c0.2,0,0.4,0,0.6,0c5.2-0.2,9.6,3.8,9.6,9v0.2V111
	c0,2,1.6,3.6,3.6,3.6c0.2,0,0.2,0,0.4,0c2,0.2,3.6-1.2,3.8-3.2c0-0.2,0-0.4,0-0.4V97.4C153.1,86.8,144.4,81.2,135.8,81.2"/>
<path class="st0" d="M198.5,84.2v28c0.2,2,2,3.4,4,3.2c1.8-0.2,3-1.6,3.2-3.2v-28C205.7,80,198.5,80.2,198.5,84.2"/>
<path class="st0" d="M238.2,84.4c-7.6-5.6-18.4-4-24,3.6s-4,18.4,3.6,24c6,4.4,14.2,4.4,20.2,0c0.2,1.8,1.8,3,3.6,3
	c1.8,0.2,3.4-1.2,3.6-3v-0.2V84.6C245.4,80.6,238.4,80.6,238.2,84.4 M228,108.4c-5.6,0-10.2-4.4-10.2-10.2c0-5.6,4.4-10.2,10.2-10.2
	c5.2,0,9.8,4,10.2,9.2V99C237.8,104.4,233.4,108.4,228,108.4"/>
<path class="st0" d="M158.3,72v26c-0.2,3.2,0.6,6.2,1.8,9.2c1.2,2.2,2.8,4,4.8,5.2c3,2,6.8,3.2,10.4,3c9.4,0,17.2-7.6,17.2-17.2
	s-7.4-17-17-17c-3.6,0-7.2,1.2-10.2,3.2V72C165.5,68,158.3,67.8,158.3,72 M165.5,99.2v-1.8c0.4-5.6,5.4-9.8,11-9.2
	c5.6,0.4,9.8,5.4,9.2,11s-5.4,9.8-11,9.2C169.7,108,165.9,104,165.5,99.2"/>
<path class="st0" d="M345.7,72v12.4c-7.6-5.6-18.4-3.8-24,3.8c-5.6,7.6-3.8,18.4,3.8,24c3,2.2,6.4,3.2,10,3.2c3.8,0,7.4-1,10.4-3
	c2-1.2,3.8-3,4.8-5.2c1.4-2.8,2-6,1.8-9.2V71.8C352.9,67.8,345.7,68,345.7,72 M335.7,108.4c-5.6,0-10.2-4.4-10.2-10.2
	c0-5.6,4.4-10.2,10.2-10.2c5.2,0,9.8,4,10.2,9.2V99C345.3,104.4,340.9,108.4,335.7,108.4"/>
<path class="st0" d="M314.9,98.2L314.9,98.2c0-9.4-7.6-17.2-17.2-17.2s-17.2,7.6-17.2,17.2l0,0l0,0c0,10.6,8.2,17.2,17.6,17.2
	c4.8,0.2,9.4-1.2,13.2-4.2c3.8-2.8,0.4-8-3.8-5.2c-2.6,2-5.8,3-9.2,2.8c-4.8,0.4-9.2-3-10.4-7.6h23.2c2.4,0,3.6-1.2,3.6-2.6
	C314.9,98.4,314.9,98.2,314.9,98.2 M288.4,95.2c1.6-5.2,7.2-8.2,12.6-6.6c3.2,1,5.6,3.4,6.6,6.6H288.4z"/>
<path class="st0" d="M258.6,90.8c0.2,5.4,18.8,3,18.8,14.6c0,6.6-5.8,10-12.6,10.2c-4.6,0.4-9.2-1-12.6-4c-3.8-3,0.8-7.6,3.8-5.4
	c2.4,2,5.2,3.2,8.4,3.4c3.4,0,5.6-0.6,5.8-3c0.6-5.6-18.6-3.2-18.6-15.4c0-6.4,5.6-9.8,12.2-9.8c4.2-0.2,8.2,1.4,11.4,4.2
	c2,2-0.6,6.6-4.4,4c-1.8-1.4-4.2-2.2-6.6-2.2C261.2,87.2,258.4,88,258.6,90.8"/>
</svg>
