<?xml version="1.0" encoding="utf-8"?>
<!-- Generator: Adobe Illustrator 22.1.0, SVG Export Plug-In . SVG Version: 6.00 Build 0)  -->
<svg version="1.1" id="Layer_1" xmlns="http://www.w3.org/2000/svg" xmlns:xlink="http://www.w3.org/1999/xlink" x="0px" y="0px"
	 viewBox="0 0 450 225" style="enable-background:new 0 0 450 225;" xml:space="preserve">
<style type="text/css">
	.st0{fill:#6E839C;}
	.st1{fill:#496982;}
	.st2{fill:#C0C0C0;}
	.st3{fill:#FE9824;}
	.st4{fill:#FFAB36;}
	.st5{fill:#FE8200;}
	.st6{fill:#E2DBDC;}
	.st7{fill:#F5A125;}
	.st8{fill:#FFB833;}
	.st9{fill:#FFC445;}
	.st10{fill:#1F1F1F;}
	.st11{fill:#2A2A2A;}
	.st12{fill:#1D1D1D;}
	.st13{fill:#3B3B3B;}
	.st14{fill:#5C6363;}
	.st15{fill:#CCD3D5;}
	.st16{fill:#91A0A5;}
	.st17{fill:#4D4D4D;}
	.st18{fill:#FEBD3A;}
	.st19{fill:#FFB73B;}
	.st20{fill:#FE9827;}
	.st21{fill:#FE6F09;}
	.st22{fill:#E07000;}
	.st23{fill:#38505E;}
	.st24{fill:#829AA9;}
	.st25{fill:#FE7F27;}
	.st26{fill:#D9D9D9;}
	.st27{fill:#D64F00;}
	.st28{fill:#C6C8CC;}
	.st29{fill:#E4E4E4;}
	.st30{fill:#FFFFFF;}
	.st31{fill:#9A5BFF;}
	.st32{fill:#FE9221;}
	.st33{fill:#E36600;}
	.st34{fill:#728A84;}
	.st35{fill:#8FA19D;}
	.st36{fill:#A6DDFF;}
	.st37{fill:#C0FFFF;}
	.st38{fill:#A34722;}
	.st39{fill:#727272;}
	.st40{fill:#A9A9A9;}
	.st41{fill:#E9EAE7;}
	.st42{fill:#949494;}
	.st43{fill:#D66F1A;}
	.st44{fill:#FEB127;}
	.st45{fill:#FE9700;}
	.st46{fill:#FF8124;}
	.st47{fill:#FEA937;}
	.st48{fill:#FEBA43;}
	.st49{fill:#ABB5BB;}
	.st50{fill:#6C7E88;}
	.st51{fill:#CACACA;}
	.st52{fill:#FF3E13;}
	.st53{fill:#353535;}
	.st54{fill:#C8FFFF;}
	.st55{fill:#FFA636;}
	.st56{fill:#8D8D8D;}
	.st57{fill:#B03B00;}
	.st58{fill:#C2521F;}
	.st59{fill:#FF5613;}
	.st60{fill:#FF722C;}
	.st61{fill:#FE5427;}
</style>
<g>
	<g>
		<g>
			<polygon class="st0" points="418.9,126.6 434,135.3 434.7,135.7 435.4,135.3 434.7,134.9 419.6,126.2 			"/>
			<polygon class="st0" points="374.1,100.8 389.2,109.5 389.9,109.9 390.6,109.5 389.9,109.1 374.8,100.4 			"/>
			<polygon class="st0" points="329.3,74.9 344.4,83.6 345.1,84 345.8,83.6 345.1,83.2 330,74.5 			"/>
			<polygon class="st0" points="284.5,49.1 299.6,57.8 300.3,58.2 301,57.8 300.3,57.4 285.2,48.7 			"/>
			<polygon class="st0" points="239.7,23.2 254.8,31.9 255.5,32.4 256.2,31.9 255.5,31.5 240.4,22.8 			"/>
			<polygon class="st0" points="211.4,6.1 210.7,6.5 210,6.1 199.4,0 200.9,0 210.7,5.7 			"/>
		</g>
		<g>
			<polygon class="st0" points="363.3,209.1 378.4,217.8 379.1,218.2 379.8,217.8 379.1,217.4 364,208.7 			"/>
			<polygon class="st0" points="318.5,183.2 333.6,191.9 334.3,192.3 335,191.9 334.3,191.5 319.3,182.8 			"/>
			<polygon class="st0" points="273.8,157.4 288.8,166.1 289.5,166.5 290.2,166.1 289.5,165.7 274.5,157 			"/>
			<polygon class="st0" points="229,131.5 244,140.2 244.7,140.7 245.5,140.2 244.7,139.8 229.7,131.1 			"/>
			<polygon class="st0" points="184.2,105.7 199.2,114.4 200,114.8 200.7,114.4 200,114 184.9,105.3 			"/>
			<polygon class="st0" points="139.4,79.9 154.5,88.6 155.2,89 155.9,88.6 155.2,88.2 140.1,79.5 			"/>
			<polygon class="st0" points="94.6,54 109.7,62.7 110.4,63.1 111.1,62.7 110.4,62.3 95.3,53.6 			"/>
			<polygon class="st0" points="49.8,28.2 64.9,36.9 65.6,37.3 66.3,36.9 65.6,36.5 50.5,27.8 			"/>
		</g>
		<polygon class="st1" points="450,64.5 450,69.9 328.8,0 338.3,0 		"/>
		<polygon class="st1" points="275.9,225 104,125.8 108.8,123.1 285.4,225 		"/>
	</g>
	<polygon class="st2" points="450,164.4 450,191 401.5,201.9 330.5,157.8 358.4,111.5 	"/>
	<polygon class="st2" points="450,69.3 450,96.5 402.2,107.3 331.2,63.1 359.1,16.9 	"/>
	<g>
		<polygon points="321.4,59.8 339.8,50.8 326.6,43.8 316.8,52.8 		"/>
		<polygon points="376.4,91.7 394.9,82.6 381.6,75.6 371.9,84.6 		"/>
		<path class="st3" d="M434.8,86.9L434.8,86.9l-9.6,7.1L403.6,105l-23.3-37.1L394,66l-11.1-6.4c0.2-0.7,0.3-1.6,0.3-2.5
			c0-5.7-4.1-10-9.1-12.9c-5-2.9-22-8.1-22-2.4c0,0.9,13,9.4,13.2,10.4l-15.9-12V17.7l66.7,37c3.7,3,12.2,9.4,16.7,15.4
			c0.4,0.5,0.7,0.9,1,1.4c1,1.5,2,2.2,2.5,3.6c0.2,0.5,0.3,0.9,0.4,1.4c0.1,0.3,0.1,0.6,0.1,0.9l0.4,5.2
			C437.2,82.6,434.9,87,434.8,86.9z"/>
		<path class="st4" d="M434.8,87L434.8,87l-9.6,7.1l-21.6,11l-5.3-8.4l-1.5-14.1l4.6,0.7h9.2l11.1-2.7l7.1-6.2c0,0,1.7-2.5,2.7-5.6
			c0.4,0.5,0.8,1,1.2,1.5c0.2,0.2,0.3,0.5,0.5,0.7c0.2,0.2,0.3,0.5,0.5,0.7c1,1.5,2,2.2,2.5,3.6c0,0,0,0,0,0
			c0.2,0.4,0.3,0.9,0.3,1.3c0,0,0,0.1,0,0.1c0,0.2,0.1,0.5,0.1,0.7l0.3,3.7l0.1,1.5c0,0.5-2.2,2.8-2.4,3.3l-1.3,0.8
			C433.3,86.8,435,86.8,434.8,87z"/>
		<path class="st5" d="M405.9,97.3l-0.6,6.8l19.9-10.1l9.6-7.1l0,0c0,0,2.3-4.4,2.3-4.4l-0.2-2.9l-6.7,6.2c-3.4,3.1-7.4,5.5-11.7,7
			L405.9,97.3z"/>
		<path class="st6" d="M437.1,81.1l-1.6,1.2c-0.3,0.3-4.8-3.9-4.4-5.1l1.8-6.8c0.1,0.2,0.2,0.3,0.4,0.5c0.2,0.2,0.3,0.5,0.5,0.7
			c1,1.5,2,2.2,2.5,3.6c0,0,0,0,0,0c0,0.1,0,0.5,0.1,0.9c0,0.2,0.1,0.4,0.3,0.6c0,0.2,0.1,0.5,0.1,0.7L437.1,81.1z"/>
		<path class="st7" d="M436,81.2l0.6-0.9c0.4-0.6-0.5-5.4-0.9-6c-0.4-0.7-1-1.4-1.5-2.1L436,81.2z"/>
		<path class="st7" d="M399.5,29.7c-1.1-0.9-2.2-1.8-3.3-2.7C397.3,27.9,398.4,28.8,399.5,29.7z"/>
		<polygon class="st4" points="391.9,71.5 412,85.6 424,82.8 429.8,76 413.8,57.8 		"/>
		<path d="M416.6,55l0.1,0.2l-0.2-0.2l-2.3,2.3c-5.2,5.4-11.6,9.6-18.7,12.2l-9.7,3.5l-51-39.9l33.8,18.2l36.2-16.6
			c1.2,1.4,2.6,3.6,3.1,4.9l8.5,14.8l0.3,0.4L416.6,55z"/>
		<path class="st8" d="M373.3,52.6l11-4.7c6.3-2.7,12.2-6.3,17.5-10.6l3-2.4c-1.5-1.7-3.2-3.4-5.3-5.1c-1.1-0.9-2.2-1.8-3.3-2.7
			c-0.4-0.3-0.8-0.6-1.2-0.9c-2.2-1.6-4.5-3.2-6.8-4.7c-0.5-0.3-1.1-0.7-1.6-1c-0.7-0.4-1.3-0.8-1.9-1.2c0,0-12-4.2-20.5-6.9
			c-0.5-0.2-1-0.3-1.5-0.4c0,0-0.1,0-0.1,0c-1-0.3-1.9-0.5-2.8-0.7c-0.1,0-0.1,0-0.2,0c-0.4-0.1-0.7-0.1-1-0.2c-0.1,0-0.2,0-0.2,0
			c-0.8-0.1-1.4-0.1-2-0.1c-0.1,0-0.2,0-0.2,0c-0.2,0-0.4,0-0.6,0.1c-0.1,0-0.1,0-0.2,0c-0.2,0.1-0.4,0.1-0.6,0.2
			c0,0-29.6,17.1-29.6,17.1l9.8,5L369,53.7l5.1,0.7L373.3,52.6z"/>
		<path class="st9" d="M334.8,33.2l30.1,18l16.1-6.9c5.7-2.4,10.9-5.9,15.3-10.1l4-3.8c0,0,0,0,0,0c-1.3-1.1-2.6-2.2-4-3.3
			c-0.4-0.3-0.8-0.6-1.2-0.9c-2.2-1.6-4.5-3.2-6.8-4.7c-0.5-0.3-1.1-0.7-1.6-1c-0.7-0.4-1.3-0.8-1.9-1.2c0,0-12.8-4.5-21.3-7.1
			c0,0,0,0,0,0l-32.4,19.1L334.8,33.2z"/>
		<path d="M357.3,10.8c-0.4,0-0.8,0-1.1,0c-0.1,0-0.2,0-0.2,0c-0.2,0-0.4,0-0.6,0.1c-0.1,0-0.1,0-0.2,0c-0.2,0.1-0.4,0.1-0.6,0.2
			c0,0-0.1,0-0.1,0.1l-29.5,17l0.2,0.2l1.6,0.1L357.3,10.8z"/>
		<g>
			<path d="M391,104l-12.1-20.2l6.3-3.6l0,0c1.5-0.8,3.6-0.7,5.9,0.6c4.6,2.7,8.4,9.1,8.4,14.4c0,2.5-0.9,4.3-2.3,5.2l0,0l-0.1,0.1
				c0,0-0.1,0-0.1,0.1L391,104z"/>
			<path class="st10" d="M381.1,85l8.6-4.9c0.5,0.2,1,0.4,1.5,0.7c4.6,2.7,8.4,9.1,8.4,14.4c0,1-0.1,1.8-0.4,2.6l-6.6,3.8
				c-0.7-0.2-1.5-0.5-2.2-1c-0.9-0.5-1.7-1.1-2.5-1.8l-6.3-10.6C381.3,87.1,381.1,86.1,381.1,85z"/>
			<path class="st11" d="M376.6,89c0,5.3,3.8,11.7,8.4,14.4c4.6,2.7,8.4,0.6,8.4-4.7c0-5.3-3.8-11.7-8.4-14.4
				C380.4,81.7,376.6,83.8,376.6,89z"/>
			<path class="st12" d="M377,89.2c0,5.1,3.6,11.2,8.1,13.8c4.5,2.6,8.1,0.5,8.1-4.5c0-5.1-3.6-11.2-8.1-13.8
				C380.6,82.1,377,84.2,377,89.2z"/>
			<path class="st13" d="M378.8,90.3c0,3.9,2.8,8.7,6.3,10.7c3.5,2,6.3,0.4,6.3-3.5c0-3.9-2.8-8.7-6.3-10.7
				C381.6,84.8,378.8,86.3,378.8,90.3z"/>
			<g>
				<path d="M390.3,97.7c-0.4,3-3.2,3.8-6.1,1.6c-2.9-2.1-5-6.3-4.5-9.4c0.4-3,3.2-3.8,6.1-1.6C388.8,90.5,390.8,94.7,390.3,97.7z"
					/>
				<path class="st14" d="M388.5,100.4l-1.7-5.1l3.6,2.1c0.1-0.9-0.1-1.8-0.3-2.8l-3.4-2l0.5-3.2c-0.4-0.4-0.8-0.8-1.2-1.1
					c-0.4-0.3-0.7-0.5-1-0.6l-0.5,3.2l-3.5-3.2c-0.5,0.4-0.8,1-1,1.8l3.7,3.3l-2.8,2c0.4,1,1,1.9,1.7,2.7l2.5-1.7l1.5,4.6
					C387.2,100.7,387.9,100.6,388.5,100.4z"/>
				<path class="st15" d="M384.8,95.6l-3,2.1c-0.5-0.7-1-1.4-1.4-2.2l3.4-2.4l-4.6-4.1c0.1-0.6,0.4-1.1,0.7-1.6l4.5,4.1l0.6-4.5
					c0.3,0.2,0.6,0.4,0.9,0.6c0.3,0.2,0.6,0.5,0.9,0.7l-0.6,4.5l4.7,2.7c0.1,0.8,0.2,1.5,0.2,2.2l-4.8-2.7l2.1,6.4
					c-0.5,0.1-1.1,0.1-1.7-0.1L384.8,95.6z"/>
				<path class="st16" d="M386,87.4c-3.4-2.5-6.6-1.6-7.1,1.9c-0.5,3.5,1.9,8.4,5.3,10.9c3.4,2.5,6.6,1.6,7.1-1.9
					C391.7,94.8,389.4,89.9,386,87.4z M384.3,99.4c-2.9-2.1-5-6.3-4.5-9.4c0.4-3,3.2-3.8,6.1-1.6c2.9,2.1,5,6.3,4.5,9.4
					C389.9,100.8,387.2,101.5,384.3,99.4z"/>
				<path class="st16" d="M387.8,95.9c-0.2,1.6-1.7,2-3.2,0.9c-1.5-1.1-2.6-3.3-2.4-5c0.2-1.6,1.7-2,3.2-0.9
					C387,92.1,388.1,94.3,387.8,95.9z"/>
				<path class="st17" d="M386.5,94.9c-0.1,0.8-0.9,1.1-1.7,0.5c-0.8-0.6-1.4-1.8-1.3-2.6c0.1-0.9,0.9-1.1,1.7-0.5
					C386.1,92.9,386.6,94.1,386.5,94.9z"/>
			</g>
			<path d="M391,104l3.7-2.1c0,0,0.1,0,0.1-0.1l0.1-0.1l0,0c1.4-0.9,2.3-2.7,2.3-5.2c0-5.3-3.8-11.7-8.4-14.4
				c-2.3-1.3-4.4-1.5-5.9-0.6l0,0l0.4-0.2l0,0c1.5-0.8,3.6-0.7,5.9,0.6c4.6,2.7,8.4,9.1,8.4,14.4c0,2.5-0.9,4.3-2.3,5.2l0,0
				l-0.1,0.1c0,0-0.1,0-0.1,0.1L391,104L391,104z"/>
			<path d="M391,104l1.8-1c0,0,0.1,0,0.1-0.1l0.1-0.1l0,0c1.4-0.9,2.3-2.7,2.3-5.2c0-5.3-3.8-11.7-8.4-14.4
				c-2.3-1.3-4.4-1.5-5.9-0.6l0,0l0.4-0.2l0,0c1.5-0.8,3.6-0.7,5.9,0.6c4.6,2.7,8.4,9.1,8.4,14.4c0,2.5-0.9,4.3-2.3,5.2l0,0
				l-0.1,0.1c0,0-0.1,0-0.1,0.1L391,104L391,104z"/>
		</g>
		<g>
			<path d="M335.7,72l-12.1-20.2l6.3-3.6l0,0c1.5-0.8,3.6-0.7,5.9,0.6c4.6,2.7,8.4,9.1,8.4,14.4c0,2.5-0.9,4.3-2.3,5.2l0,0l-0.1,0.1
				c0,0-0.1,0-0.1,0.1L335.7,72z"/>
			<path class="st10" d="M325.8,53.1l8.6-4.9c0.5,0.2,1,0.4,1.5,0.7c4.6,2.7,8.4,9.1,8.4,14.4c0,1-0.1,1.8-0.4,2.6l-6.6,3.8
				c-0.7-0.2-1.5-0.5-2.2-1c-0.9-0.5-1.7-1.1-2.5-1.8l-6.3-10.6C326,55.1,325.8,54.1,325.8,53.1z"/>
			<path class="st11" d="M321.3,57c0,5.3,3.8,11.7,8.4,14.4c4.6,2.7,8.4,0.6,8.4-4.7c0-5.3-3.8-11.7-8.4-14.4
				C325.1,49.7,321.3,51.8,321.3,57z"/>
			<path class="st12" d="M321.7,57.2c0,5.1,3.6,11.2,8.1,13.8c4.5,2.6,8.1,0.5,8.1-4.5c0-5.1-3.6-11.2-8.1-13.8
				C325.3,50.1,321.7,52.2,321.7,57.2z"/>
			<path class="st13" d="M323.5,58.3c0,3.9,2.8,8.7,6.3,10.7c3.5,2,6.3,0.4,6.3-3.5c0-3.9-2.8-8.7-6.3-10.7
				C326.3,52.8,323.5,54.3,323.5,58.3z"/>
			<g>
				<path d="M335.1,65.8c-0.4,3-3.2,3.8-6.1,1.6c-2.9-2.1-5-6.3-4.5-9.4c0.4-3,3.2-3.8,6.1-1.6C333.5,58.5,335.5,62.7,335.1,65.8z"
					/>
				<path class="st14" d="M333.2,68.4l-1.7-5.1l3.6,2.1c0.1-0.9-0.1-1.8-0.3-2.8l-3.4-2l0.5-3.2c-0.4-0.4-0.8-0.8-1.2-1.1
					c-0.4-0.3-0.7-0.5-1-0.6L329,59l-3.5-3.2c-0.5,0.4-0.8,1-1,1.8l3.7,3.3l-2.8,2c0.4,1,1,1.9,1.7,2.7l2.5-1.7l1.5,4.6
					C331.9,68.7,332.6,68.7,333.2,68.4z"/>
				<path class="st15" d="M329.5,63.6l-3,2.1c-0.5-0.7-1-1.4-1.4-2.2l3.4-2.4l-4.6-4.1c0.1-0.6,0.4-1.1,0.7-1.6l4.5,4.1l0.6-4.5
					c0.3,0.2,0.6,0.4,0.9,0.6c0.3,0.2,0.6,0.5,0.9,0.7l-0.6,4.5l4.7,2.7c0.1,0.8,0.2,1.5,0.2,2.2L331,63l2.1,6.4
					c-0.5,0.1-1.1,0.1-1.7-0.1L329.5,63.6z"/>
				<path class="st16" d="M330.7,55.5c-3.4-2.5-6.6-1.6-7.1,1.9c-0.5,3.5,1.9,8.4,5.3,10.9c3.4,2.5,6.6,1.6,7.1-1.9
					C336.4,62.9,334.1,58,330.7,55.5z M329,67.4c-2.9-2.1-5-6.3-4.5-9.4c0.4-3,3.2-3.8,6.1-1.6c2.9,2.1,5,6.3,4.5,9.4
					C334.6,68.8,331.9,69.5,329,67.4z"/>
				<path class="st16" d="M332.6,63.9c-0.2,1.6-1.7,2-3.2,0.9c-1.5-1.1-2.6-3.3-2.4-5c0.2-1.6,1.7-2,3.2-0.9
					C331.7,60.1,332.8,62.3,332.6,63.9z"/>
				<path class="st17" d="M331.2,63c-0.1,0.9-0.9,1.1-1.7,0.5c-0.8-0.6-1.4-1.8-1.3-2.6c0.1-0.9,0.9-1.1,1.7-0.5
					C330.8,60.9,331.4,62.1,331.2,63z"/>
			</g>
			<path d="M335.7,72l3.7-2.1c0,0,0.1,0,0.1-0.1l0.1-0.1l0,0c1.4-0.9,2.3-2.7,2.3-5.2c0-5.3-3.8-11.7-8.4-14.4
				c-2.3-1.3-4.4-1.5-5.9-0.6l0,0l0.4-0.2l0,0c1.5-0.8,3.6-0.7,5.9,0.6c4.6,2.7,8.4,9.1,8.4,14.4c0,2.5-0.9,4.3-2.3,5.2l0,0
				l-0.1,0.1c0,0-0.1,0-0.1,0.1L335.7,72L335.7,72z"/>
			<path d="M335.7,72l1.8-1c0,0,0.1,0,0.1-0.1l0.1-0.1l0,0c1.4-0.9,2.3-2.7,2.3-5.2c0-5.3-3.8-11.7-8.4-14.4
				c-2.3-1.3-4.4-1.5-5.9-0.6l0,0l0.4-0.2l0,0c1.5-0.8,3.6-0.7,5.9,0.6c4.6,2.7,8.4,9.1,8.4,14.4c0,2.5-0.9,4.3-2.3,5.2l0,0
				l-0.1,0.1c0,0-0.1,0-0.1,0.1L335.7,72L335.7,72z"/>
		</g>
		<path class="st18" d="M319.1,33.4L316.8,45l-2.2-1.3l-1,3c-1.4,4.2,0.3,8.8,4.1,11l3.7,2.1c-0.2-1-0.3-1.9-0.3-2.9
			c0-5.7,4.1-8,9.1-5.1c5,2.9,9.1,9.9,9.1,15.6c0,0.9-0.1,1.8-0.3,2.5l37.5,21.7c-0.2-0.9-0.3-1.8-0.3-2.7c0-5.7,4.1-8,9.1-5.1
			c5,2.9,9.1,9.9,9.1,15.6c0,0.9-0.1,1.7-0.3,2.4l5.3,3c3.2,1.8,7.2-0.7,6.9-4.3l-0.4-5.2c-0.6-7.8-13.9-18.7-20.7-22.6L319.1,33.4z
			"/>
		<polygon class="st19" points="397.8,82.6 399.5,89.5 405.9,97.3 405.5,91.8 		"/>
		<path class="st20" d="M376.4,91.7c-0.2-0.9-0.3-1.8-0.3-2.7c0-5.7,4.1-8,9.1-5.1c5,2.9,9.1,9.9,9.1,15.6c0,0.9-0.1,1.7-0.3,2.4
			l5.3,3c3.2,1.8,7.2-0.7,6.9-4.3l-0.3-3.2c-5.6-9.5-23-20.4-23-20.4l-61.6-36.2l-3.4-1.3l-1.1,5.6l-2.2-1.3l-1,3
			c-1.4,4.2,0.3,8.8,4.1,11l3.7,2.1c-0.2-1-0.3-1.9-0.3-2.9c0-5.7,4.1-8,9.1-5.1c5,2.9,9.1,9.9,9.1,15.6c0,0.9-0.1,1.8-0.3,2.5
			L376.4,91.7z"/>
		<path class="st21" d="M321.2,55.7c0-0.1,0-0.1,0-0.2c0.1-0.4,0.1-0.8,0.2-1.1l0,0l-3.7-2.1c-1.5-0.9-2.5-5.1-3.2-8.2l-0.9,2.7
			c-1.4,4.2,0.3,8.8,4.1,11l3.7,2.1c-0.2-1-0.3-1.9-0.3-2.9C321.1,56.5,321.1,56.1,321.2,55.7z"/>
		<path class="st21" d="M399.3,99.4l-5.3-3l-0.1,0c0.2,1,0.4,2.1,0.4,3.1c0,0.9-0.1,1.7-0.3,2.4l5.3,3c3.2,1.8,7.2-0.7,6.9-4.3
			C406.2,100.5,401.9,100.9,399.3,99.4z"/>
		<path class="st21" d="M376.5,86.3L376.5,86.3l-37.6-21.7c0.2,1,0.3,2,0.3,2.9c0,0.9-0.1,1.8-0.3,2.5l37.5,21.7
			c-0.2-0.9-0.3-1.8-0.3-2.7C376.1,88,376.3,87.1,376.5,86.3z"/>
		<g>
			<path class="st22" d="M373.8,88.9l-0.2-0.1l-17.8-10.2l-4.5-6.5l0-13.8l2.2-4.4l0-16.2l32.3,35.7l-8.9,9.4L373.8,88.9z
				 M356.1,78.3l17.4,9.9l2.9-5.7l8.6-9.1L354,39l0,15.1l-2.2,4.4v13.5L356.1,78.3z"/>
		</g>
		<g>
			<path class="st22" d="M356.5,78.9l-16.3-9.3l0-0.2c0-0.1,0.5-5.1-2.1-11.4c-1.6-3.8-6.2-7-6.2-7.1l-0.1-0.1l-0.1-4l2.9-4.3
				l3.2-4.7l16.2,16l-2.3,4.6v13.5L356.5,78.9z M340.7,69.3l14.1,8.1l-3.6-5.2l0-13.8l2.2-4.3l-15.6-15.4l-2.9,4.2l-2.8,4.2l0.1,3.6
				c0.7,0.5,4.8,3.5,6.3,7.2C340.9,63.6,340.8,68.4,340.7,69.3z"/>
		</g>
		<g>
			<path class="st22" d="M405.6,83.7c-3.3,0-6.7-0.3-7.8-0.8l0.2-0.5c2.3,1,13.2,0.9,15-0.1l0.1,0l8.5-2.1l6.8-5.8
				c0.6-0.3,2.5-3.2,2.8-6l0.5,0.1c-0.4,2.8-2.3,5.9-3,6.3l-6.9,5.9l-8.5,2.1C412.2,83.4,408.9,83.7,405.6,83.7z"/>
		</g>
		<path class="st23" d="M415.5,53.9l-2.3,2.5l-0.1,0.1c-0.8,0.8-1.6,1.6-2.5,2.3c-2.4,2.1-5,4-7.8,5.7c-2.6,1.5-5.3,2.8-8.1,3.8
			c-0.7,0.3-1.5,0.5-2.3,0.7l-6.8,2.1l-2.2-4.1L376,52.8l2.6-1.1l7.1-3c0.4-0.2,0.8-0.4,1.2-0.6c3-1.4,5.9-3,8.7-4.8
			c1.9-1.2,3.7-2.6,5.5-4l1.4-1.1l2.6-2.1l7.1,12.1L415.5,53.9z"/>
		<path d="M385.8,73.1l-62-36.9c-1.5-0.9-0.4-5,1.1-5.9c2.9-1.7,9.7-0.4,10.5-0.3c0,0,19.8,7.4,19.8,7.4c13.5,8,18.5,14.6,21.2,18.7
			L385.8,73.1z"/>
		<path class="st23" d="M381.6,68l-6.7-4l-15.9-9.5l-12.5-7.5L335,40.3l-9.2-5.5v-2.7l4.5-0.5l3.5-0.4l4.9,1.8l10.5,3.8l4.4,1.6
			c4,2.3,7.9,4.9,11.2,7.4c3.4,2.6,6.2,5.1,7.9,7.4c0.3,0.4,2.4,3.8,2.7,4.4L381.6,68z"/>
		<polygon class="st24" points="346.4,47.1 335,40.3 330.3,31.6 333.8,31.2 338.8,33 		"/>
		<path class="st24" d="M374.9,64l-15.9-9.5l-9.6-17.8l4.4,1.6c4,2.3,7.9,4.9,11.2,7.4L374.9,64z"/>
		<polygon class="st6" points="319.1,33.4 314.6,43.7 316.8,45 321.3,40.7 		"/>
		<polygon class="st25" points="319.1,33.4 319.7,40.1 316.8,45 321.3,40.7 		"/>
		<path class="st6" d="M412.9,96.3L412.9,96.3l-4.7,1.7c-0.6,0.2-1.3-0.6-2-1.8c-1.1-1.9-2.1-4.8-2.8-5.7l-5.6-7.8l14.5,5.2
			C413.4,88.3,414,95.6,412.9,96.3z"/>
		<path class="st7" d="M399.5,84.4l3.8,5c1,1.3,3.3,8.3,4.9,8.1l0.8-0.1l-6.8-11.9L399.5,84.4z"/>
		<g>
			<path d="M429.9,80.1c-0.7-0.9-0.8-2.1-0.4-3.2l0.4-1l-2.5,2.9c-2.2,2.6-5.2,4.4-8.5,5.1l-6.9,1.6l1.7,0.6
				c1.3,0.5,2.1,1.6,2.3,2.9l3.9-0.5c2.9-0.4,5.7-1.8,7.6-4.1l3.2-3.7C430.3,80.6,430.1,80.4,429.9,80.1z"/>
			<g>
				<path class="st26" d="M414.8,87.8l6-1.4c2.4-0.5,4.5-1.8,6.1-3.7l2.9-3.3c0-0.4,0.1-0.7,0.2-1.1l0.4-1l-3.4,4
					c-1.6,1.9-3.8,3.2-6.1,3.7l-8.3,1.9l1.7,0.6C414.4,87.6,414.6,87.7,414.8,87.8z"/>
			</g>
		</g>
		<polygon points="354.8,38.9 352.6,37.8 352.6,52.8 354.8,52.8 		"/>
		<rect x="333.8" y="30.5" width="2.2" height="11.3"/>
		<path class="st18" d="M334.9,29.5c-0.9-0.2-10.6,1.3-10.6,1.3l-0.2,5.6l-5-3l5.7-5.1c0,0,0.1,0,0.1-0.1c1.2-0.7,3.7-0.4,6.8,0.4
			c0,0,0,0,0,0C333.6,29.1,334.9,29.5,334.9,29.5z"/>
		<path class="st18" d="M319.1,33.4l2.1,1.3c-0.2,0.5-0.3,0.9-0.3,0.9L319.1,33.4z"/>
		<path class="st18" d="M331.7,28.6c-3.1-0.7-5.6-1-6.8-0.4C326,27.6,327.1,27.4,331.7,28.6z"/>
		<path class="st27" d="M434.8,86.9c1.3-1.4,1.9-2.9,2.3-4.4l-8.2,7.1c-2.8,2.5-6.1,4.4-9.6,5.8l-13.2,5.1l-2.6,4.5l15.4-6.3
			c3.6-1.5,7-3.6,9.8-6.2L434.8,86.9L434.8,86.9z"/>
		<g>
			<polygon class="st28" points="384.4,25.6 377.9,29.3 380.2,40.6 390,35 			"/>
			<polygon class="st29" points="363.3,13.2 356.8,16.9 377.9,29.3 384.4,25.6 			"/>
			<polygon class="st30" points="356.8,16.9 351.2,23.6 380.2,40.6 377.9,29.3 			"/>
			<polygon class="st31" points="352.9,23.4 357.1,18.3 377,30 378.7,38.4 			"/>
		</g>
		<path class="st32" d="M399.5,89.5l0.5,10.3l5.7,1.5l0.4-0.8l-0.3-3.2C405.9,97.3,405.1,94.9,399.5,89.5z"/>
		<path class="st33" d="M405.7,101.3l-3.8-0.9c-0.6-0.1-1.3-0.3-1.9-0.5l0,0l-2.1,4.3l1.3,0.8c1.6,0.9,3.5,0.7,4.8-0.2L405.7,101.3z
			"/>
		<path class="st34" d="M390.3,63.8l4.4,4.5c-0.7,0.3-1.5,0.5-2.3,0.7l-6.8,2.1l-2.2-4.1L390.3,63.8z"/>
		<path class="st34" d="M410.7,58.8c-2.4,2.1-5,4-7.8,5.7l-4.5-4.6l2.7-1.3l1.6-3.2l2.8-1.8L410.7,58.8z"/>
		<path class="st35" d="M402.9,64.5C402.8,64.5,402.8,64.5,402.9,64.5c-0.4,0.2-0.7,0.4-1,0.6c-0.8,0.4-1.5,0.8-2.3,1.2
			c-0.5,0.2-0.9,0.4-1.4,0.6c-1.1,0.5-2.3,1-3.5,1.4l-4.4-4.5l8.1-3.9L402.9,64.5z"/>
		<path class="st24" d="M398.3,59.9l-8.1,3.9l-11.7-12l7.1-3c0.4-0.2,0.8-0.4,1.2-0.6L398.3,59.9z"/>
		<path class="st24" d="M415.5,53.9l-4.7-2.7l0,0l-0.7-0.4l-0.6,0.4l-3.9,2.4l-10-10.2c0.1-0.1,0.2-0.2,0.3-0.2
			c1.8-1.2,3.5-2.4,5.1-3.7l1.4-1.1l2.2,2.3l7.5,7.7L415.5,53.9z"/>
		<path class="st35" d="M410.8,51.2l-0.8-0.4l-0.6,0.4l-3.9,2.4l5.1,5.3c0.8-0.7,1.7-1.5,2.5-2.3l0.1-0.1l2.3-2.5L410.8,51.2z"/>
		<path class="st36" d="M404.6,40.5l-2.2-2.3l0.5-0.4C403.3,38.4,404.1,39.6,404.6,40.5z"/>
		<path class="st37" d="M410.8,51.2l-0.7-0.4l-0.6,0.4l-4.7-2.8l-8.8-5.2c1.8-1.2,3.5-2.4,5.1-3.7l1.4-1.1l2.2,2.3
			c0.4,0.6,0.7,1.1,0.7,1.3L410.8,51.2z"/>
		<polygon class="st38" points="352.7,61.6 356.2,63.7 356.2,62.5 352.7,60.4 		"/>
		<polygon class="st38" points="333.6,50.3 337.1,52.3 337.1,51.1 333.6,49 		"/>
		<g>
			<path d="M356,64l-0.9-0.5v-0.7l2.5,1.4v0.7l-0.9-0.5v2.9L356,67V64z"/>
			<path d="M358.5,67.4l-0.2,0.8l-0.8-0.4l1-3.1l1,0.5l1,4.2l-0.8-0.5l-0.2-1.1L358.5,67.4z M359.3,67.3l-0.2-0.9
				c-0.1-0.2-0.1-0.6-0.2-0.8l0,0c0,0.2-0.1,0.4-0.1,0.6l-0.2,0.7L359.3,67.3z"/>
			<path d="M362.4,70.6l-0.3-0.8c-0.1-0.3-0.2-0.6-0.3-0.8l0,0c-0.1,0.2-0.1,0.3-0.2,0.5l-0.3,0.5l-0.8-0.5l0.9-1.3l-0.9-2.3
				l0.8,0.5l0.3,0.8c0.1,0.3,0.2,0.5,0.2,0.7l0,0c0.1-0.2,0.1-0.3,0.2-0.5l0.3-0.5l0.8,0.5l-0.9,1.3l1,2.4L362.4,70.6z"/>
			<path d="M364.4,68.1v3.6l-0.7-0.4v-3.6L364.4,68.1z"/>
		</g>
		<g>
			<path class="st30" d="M360.4,25.6c-0.1,0-0.4-0.1-0.7-0.3c-0.9-0.5-1.4-1.4-1.4-2.2c0-1,0.6-1.2,1.4-0.7c0.3,0.2,0.5,0.4,0.6,0.5
				l-0.1,0.5c-0.1-0.1-0.3-0.3-0.5-0.4c-0.5-0.3-0.8-0.2-0.8,0.5c0,0.6,0.3,1.1,0.8,1.4c0.2,0.1,0.4,0.2,0.5,0.2L360.4,25.6z"/>
			<path class="st30" d="M361.4,23.3v2.9l-0.6-0.3v-2.9L361.4,23.3z"/>
			<path class="st30" d="M362.4,24.4l-0.7-0.4v-0.6l2,1.1v0.6l-0.7-0.4v2.4l-0.6-0.3V24.4z"/>
			<path class="st30" d="M364.7,28.1v-1.2l-0.8-2.2l0.7,0.4l0.3,0.9c0.1,0.3,0.1,0.4,0.2,0.7l0,0c0.1-0.1,0.1-0.3,0.2-0.4l0.3-0.6
				l0.7,0.4l-0.9,1.2v1.2L364.7,28.1z"/>
			<path class="st30" d="M369.1,30.5c-0.1,0-0.4-0.1-0.7-0.3c-0.9-0.5-1.4-1.4-1.4-2.2c0-1,0.6-1.2,1.4-0.7c0.3,0.2,0.5,0.4,0.6,0.5
				l-0.1,0.5c-0.1-0.1-0.3-0.3-0.5-0.4c-0.5-0.3-0.8-0.2-0.8,0.5c0,0.6,0.3,1.1,0.8,1.4c0.2,0.1,0.4,0.2,0.5,0.2L369.1,30.5z"/>
			<path class="st30" d="M370.1,30.4l-0.2,0.6l-0.6-0.3l0.8-2.5l0.8,0.4l0.8,3.4l-0.6-0.4l-0.2-0.9L370.1,30.4z M370.8,30.3
				l-0.2-0.7c0-0.2-0.1-0.4-0.1-0.6l0,0c0,0.2-0.1,0.4-0.1,0.5l-0.2,0.5L370.8,30.3z"/>
			<path class="st30" d="M372.1,29.4c0.2,0.1,0.5,0.2,0.8,0.4c0.4,0.2,0.6,0.4,0.8,0.6c0.2,0.2,0.3,0.5,0.3,0.8
				c0,0.3-0.1,0.4-0.4,0.4v0c0.3,0.3,0.5,0.6,0.5,1c0,0.3-0.1,0.4-0.3,0.5c-0.2,0.1-0.5,0-1-0.3c-0.3-0.2-0.5-0.3-0.6-0.4V29.4z
				 M372.6,30.8l0.2,0.1c0.3,0.2,0.5,0.1,0.5-0.1c0-0.2-0.2-0.4-0.4-0.6c-0.1-0.1-0.2-0.1-0.3-0.1V30.8z M372.6,32.1
				c0.1,0,0.1,0.1,0.2,0.1c0.3,0.2,0.5,0.2,0.5-0.1c0-0.3-0.2-0.5-0.5-0.7l-0.2-0.1V32.1z"/>
		</g>
		<g>
			<polygon points="337.8,54.6 339.5,55.6 339.5,54 337.8,52.9 			"/>
			<polygon points="339.5,57.2 341.2,58.2 341.2,56.6 339.5,55.6 			"/>
			<polygon points="341.2,56.6 343,57.6 343,56 341.2,55 			"/>
			<polygon points="343,59.3 344.7,60.3 344.7,58.7 343,57.6 			"/>
			<polygon points="344.7,58.7 346.5,59.7 346.5,58.1 344.7,57 			"/>
			<polygon points="348.2,60.7 350,61.7 350,60.1 348.2,59.1 			"/>
			<polygon points="346.5,61.3 348.2,62.3 348.2,60.7 346.5,59.7 			"/>
		</g>
		<g>
			<polygon points="368.1,71.2 369.8,72.3 369.8,70.6 368.1,69.6 			"/>
			<polygon points="369.8,73.9 371.6,74.9 371.6,73.3 369.8,72.3 			"/>
			<polygon points="371.6,73.3 373.3,74.3 373.3,72.7 371.6,71.7 			"/>
			<polygon points="373.3,75.9 375.1,77 375.1,75.3 373.3,74.3 			"/>
			<polygon points="375.1,75.3 376.8,76.4 376.8,74.7 375.1,73.7 			"/>
			<polygon points="378.6,77.4 380.3,78.4 380.3,76.8 378.6,75.8 			"/>
			<polygon points="376.8,78 378.6,79 378.6,77.4 376.8,76.4 			"/>
		</g>
		<g>
			<polygon points="406.5,76.1 408.5,75.1 406.9,73.9 405,74.8 			"/>
			<polygon points="410,76.4 412,75.5 410.4,74.2 408.5,75.1 			"/>
			<polygon points="410.4,74.2 412.4,73.2 410.8,71.9 408.9,72.9 			"/>
			<polygon points="413.9,74.5 415.9,73.5 414.3,72.3 412.4,73.2 			"/>
			<polygon points="414.3,72.3 416.3,71.3 414.7,70 412.8,71 			"/>
			<polygon points="418.2,70.4 420.2,69.4 418.6,68.1 416.7,69.1 			"/>
			<polygon points="417.8,72.6 419.8,71.6 418.2,70.4 416.3,71.3 			"/>
		</g>
	</g>
	<g>
		<polygon points="315.6,149.8 336.1,139.8 321.4,132.1 310.6,142 		"/>
		<polygon points="376.6,185 397,175 382.4,167.2 371.5,177.2 		"/>
		<g>
			<g>
				<path d="M392.8,197.8l-13.4-22.4l7-4l0,0c1.7-0.9,4-0.8,6.5,0.7c5.1,3,9.3,10.1,9.3,15.9c0,2.8-1,4.8-2.5,5.8l0,0l-0.1,0.1
					c0,0-0.1,0-0.1,0.1L392.8,197.8z"/>
				<path class="st10" d="M381.8,176.7l9.5-5.5c0.5,0.2,1.1,0.4,1.6,0.8c5.1,3,9.3,10.1,9.3,15.9c0,1.1-0.1,2-0.4,2.8l-7.3,4.2
					c-0.8-0.2-1.6-0.6-2.5-1.1c-1-0.5-1.9-1.2-2.7-2l-7-11.8C382,179,381.8,177.9,381.8,176.7z"/>
				<path class="st11" d="M376.8,181.2c0,5.8,4.2,13,9.3,15.9c5.1,3,9.3,0.6,9.3-5.2c0-5.8-4.2-13-9.3-15.9
					C381,173,376.8,175.3,376.8,181.2z"/>
				<path class="st12" d="M377.2,181.4c0,5.6,4,12.5,8.9,15.3c4.9,2.8,8.9,0.6,8.9-5c0-5.6-4-12.5-8.9-15.3
					C381.2,173.5,377.2,175.8,377.2,181.4z"/>
				<path class="st13" d="M379.2,182.5c0,4.4,3.1,9.7,6.9,11.9c3.8,2.2,6.9,0.5,6.9-3.9c0-4.4-3.1-9.7-6.9-11.9
					C382.3,176.4,379.2,178.2,379.2,182.5z"/>
				<path class="st39" d="M379.7,182.8c0,4.1,2.9,9,6.5,11.1c3.6,2.1,6.5,0.4,6.5-3.6c0-4.1-2.9-9-6.5-11.1
					C382.6,177.1,379.7,178.7,379.7,182.8z"/>
				<path class="st40" d="M386.2,179.2c3.5,2.1,6.4,7,6.4,11c0,0.6-0.1,1.1-0.2,1.6l-4.7,2.7c-0.5-0.1-1-0.4-1.6-0.7
					c-3.5-2-6.4-6.9-6.5-10.9L386.2,179.2z"/>
				<path class="st41" d="M389.8,182.5c1.3,1.7,2.2,3.7,2.6,5.7l-7.8,4.5c-1.5-1.3-2.8-3.1-3.7-5.1L389.8,182.5z"/>
				<path class="st41" d="M389.8,182.5c1.3,1.7,2.2,3.7,2.6,5.7l-7.8,4.5c-1.5-1.3-2.8-3.1-3.7-5.1L389.8,182.5z"/>
				<path class="st17" d="M381.8,182.7c0,3.2,2.3,7.2,5.1,8.8c2.8,1.6,5.1,0.3,5.1-2.9c0-3.2-2.3-7.2-5.1-8.8
					C384.1,178.2,381.8,179.5,381.8,182.7z"/>
				<path class="st42" d="M382.5,183c0,2.8,2,6.3,4.5,7.7c2.5,1.4,4.5,0.3,4.5-2.5s-2-6.3-4.5-7.7C384.5,179,382.5,180.2,382.5,183z
					"/>
				<path class="st39" d="M384.5,185.4c0,1.1,0.8,2.5,1.8,3.1c1,0.6,1.8,0.1,1.8-1c0-1.1-0.8-2.5-1.8-3.1
					C385.3,183.8,384.5,184.3,384.5,185.4z"/>
				<path d="M392.8,197.8l4.1-2.4c0,0,0.1,0,0.1-0.1l0.1-0.1l0,0c1.6-1,2.5-3,2.5-5.8c0-5.8-4.2-13-9.3-15.9
					c-2.5-1.5-4.8-1.6-6.5-0.7l0,0l0.5-0.3l0,0c1.7-0.9,4-0.8,6.5,0.7c5.1,3,9.3,10.1,9.3,15.9c0,2.8-1,4.8-2.5,5.8l0,0l-0.1,0.1
					c0,0-0.1,0-0.1,0.1L392.8,197.8L392.8,197.8z"/>
				<path d="M392.8,197.8l2-1.2c0,0,0.1,0,0.1-0.1l0.1-0.1l0,0c1.6-1,2.5-3,2.5-5.8c0-5.8-4.2-13-9.3-15.9c-2.5-1.5-4.8-1.6-6.5-0.7
					l0,0l0.5-0.3l0,0c1.7-0.9,4-0.8,6.5,0.7c5.1,3,9.3,10.1,9.3,15.9c0,2.8-1,4.8-2.5,5.8l0,0l-0.1,0.1c0,0-0.1,0-0.1,0.1
					L392.8,197.8L392.8,197.8z"/>
			</g>
			<g>
				<path d="M332.2,162.8l-13.4-22.4l7-4l0,0c1.7-0.9,4-0.8,6.5,0.7c5.1,3,9.3,10.1,9.3,15.9c0,2.8-1,4.8-2.5,5.8l0,0l-0.1,0.1
					c0,0-0.1,0-0.1,0.1L332.2,162.8z"/>
				<path class="st10" d="M321.2,141.8l9.5-5.5c0.5,0.2,1.1,0.4,1.6,0.8c5.1,3,9.3,10.1,9.3,15.9c0,1.1-0.1,2-0.4,2.8l-7.3,4.2
					c-0.8-0.2-1.6-0.6-2.5-1.1c-1-0.5-1.9-1.2-2.7-2l-7-11.8C321.4,144.1,321.3,142.9,321.2,141.8z"/>
				
					<ellipse transform="matrix(0.8589 -0.5122 0.5122 0.8589 -31.6919 188.1364)" class="st11" cx="325.6" cy="151.6" rx="7.5" ry="13"/>
				<path class="st12" d="M316.6,146.4c0,5.6,4,12.5,8.9,15.3c4.9,2.8,8.9,0.6,8.9-5c0-5.6-4-12.5-8.9-15.3
					C320.6,138.6,316.6,140.8,316.6,146.4z"/>
				<path class="st13" d="M318.6,147.6c0,4.4,3.1,9.7,6.9,11.9c3.8,2.2,6.9,0.5,6.9-3.9c0-4.4-3.1-9.7-6.9-11.9
					C321.7,141.5,318.6,143.2,318.6,147.6z"/>
				<path class="st39" d="M319.1,147.9c0,4.1,2.9,9,6.5,11.1c3.6,2.1,6.5,0.4,6.5-3.6c0-4.1-2.9-9-6.5-11.1
					C322,142.2,319.1,143.8,319.1,147.9z"/>
				<path class="st40" d="M325.7,144.3c3.5,2.1,6.4,7,6.4,11c0,0.6-0.1,1.1-0.2,1.6l-4.7,2.7c-0.5-0.1-1-0.4-1.6-0.7
					c-3.5-2-6.4-6.9-6.5-10.9L325.7,144.3z"/>
				<path class="st41" d="M329.2,147.6c1.3,1.7,2.2,3.7,2.6,5.7l-7.8,4.5c-1.5-1.3-2.8-3.1-3.7-5.1L329.2,147.6z"/>
				<path class="st41" d="M329.2,147.6c1.3,1.7,2.2,3.7,2.6,5.7l-7.8,4.5c-1.5-1.3-2.8-3.1-3.7-5.1L329.2,147.6z"/>
				<path class="st17" d="M321.2,147.8c0,3.2,2.3,7.2,5.1,8.8c2.8,1.6,5.1,0.3,5.1-2.9c0-3.2-2.3-7.2-5.1-8.8
					C323.5,143.3,321.2,144.6,321.2,147.8z"/>
				<path class="st42" d="M321.8,147.9c0,2.8,2,6.3,4.5,7.7c2.5,1.4,4.5,0.3,4.5-2.5c0-2.8-2-6.3-4.5-7.7
					C323.8,144,321.8,145.1,321.8,147.9z"/>
				<path class="st39" d="M323.8,150.3c0,1.1,0.8,2.5,1.8,3.1c1,0.6,1.8,0.1,1.8-1c0-1.1-0.8-2.5-1.8-3.1
					C324.7,148.8,323.8,149.2,323.8,150.3z"/>
				<path d="M332.2,162.8l4.1-2.4c0,0,0.1,0,0.1-0.1l0.1-0.1l0,0c1.6-1,2.5-3,2.5-5.8c0-5.8-4.2-13-9.3-15.9
					c-2.5-1.5-4.8-1.6-6.5-0.7l0,0l0.5-0.3l0,0c1.7-0.9,4-0.8,6.5,0.7c5.1,3,9.3,10.1,9.3,15.9c0,2.8-1,4.8-2.5,5.8l0,0l-0.1,0.1
					c0,0-0.1,0-0.1,0.1L332.2,162.8L332.2,162.8z"/>
				<path d="M332.2,162.8l2-1.2c0,0,0.1,0,0.1-0.1l0.1-0.1l0,0c1.6-1,2.5-3,2.5-5.8c0-5.8-4.2-13-9.3-15.9c-2.5-1.5-4.8-1.6-6.5-0.7
					l0,0l0.5-0.3l0,0c1.7-0.9,4-0.8,6.5,0.7c5.1,3,9.3,10.1,9.3,15.9c0,2.8-1,4.8-2.5,5.8l0,0l-0.1,0.1c0,0-0.1,0-0.1,0.1
					L332.2,162.8L332.2,162.8z"/>
			</g>
			<path class="st5" d="M411,145.7l-17.5,10.1l16.9,9.8c-0.2-1-0.3-2-0.3-3c0-6.3,4.5-8.8,10.1-5.6c4,2.3,7.4,6.9,9,11.6l-23.2,13.4
				l-1.6,1.6l-0.4,8.8l32.8-13.2c0.1-0.1,0.3-0.2,0.4-0.2l0.1,0l0,0c1.2-0.8,2-2.1,2-3.8v-7v-5.3L411,145.7z"/>
			<path class="st43" d="M437.3,178.8L437.3,178.8L437.3,178.8c1.3-0.8,2.1-2.2,2.1-3.8v-3.7l-34.5,19.9l-0.9,6.8l32.8-18.9
				C437,179,437.1,178.9,437.3,178.8z"/>
			<path class="st20" d="M404.5,183.4l-0.4,8.8l2,1.9c0,3.5-3.8,5.7-6.9,4l-3.1-1.8c0.2-0.8,0.3-1.7,0.3-2.6c0-6.3-4.5-14-10.1-17.2
				c-5.6-3.2-10.1-0.7-10.1,5.6c0,1,0.1,2,0.3,3L335.1,161c0.2-0.8,0.3-1.7,0.3-2.8c0-6.3-4.5-14-10.1-17.2
				c-5.6-3.2-10.1-0.7-10.1,5.6c0,1,0.1,2.1,0.4,3.2l-4.1-2.4c-3.5-2-5.4-5.8-5.1-9.6v-9.3c0-0.4,0.1-0.8,0.3-1.2
				c0.6-1.1,2-1.6,3.2-0.9L404.5,183.4z"/>
			<g>
				<path class="st21" d="M395.9,189.6c0,0,0.6,2.8,0.6,4.1c0,1-0.1,1.9-0.3,2.6l3.1,1.8c2.7,1.6,8.2,1,6.9-7.6
					C406.1,190.5,405.3,192.7,395.9,189.6z"/>
				<path class="st21" d="M311.5,147.4l4.1,2.4c-0.2-1.1-0.4-2.1-0.4-3.2c0-1.3,0.2-2.4,0.5-3.3l-9.3-5.4
					C306.2,141.8,308.1,145.5,311.5,147.4z"/>
				<path class="st21" d="M334.9,154.4c0.3,1.3,0.5,2.6,0.5,3.9c0,1-0.1,2-0.4,2.8l41.6,24.1c-0.2-1-0.3-2-0.3-3
					c0-1.3,0.2-2.5,0.6-3.5L334.9,154.4z"/>
			</g>
			<path class="st44" d="M369.8,122.7l-24-13.8c-2.4-1.4-5.3-1.4-7.7,0l-30,17.3l31.1,17.7C349.3,136.6,359.3,129.3,369.8,122.7z"/>
			<g>
				<polygon points="325.2,123 326.9,122 325.4,121 323.7,122 				"/>
				<polygon points="325.4,121 327.2,119.9 325.7,118.9 323.9,119.9 				"/>
				<polygon points="328.7,121 330.4,120 328.9,118.9 327.2,119.9 				"/>
				<polygon points="328.9,118.9 330.7,117.9 329.2,116.8 327.4,117.9 				"/>
				<polygon points="332.4,116.9 334.1,115.9 332.6,114.8 330.9,115.8 				"/>
				<polygon points="335.6,117 337.4,116 335.9,114.9 334.1,115.9 				"/>
				<polygon points="332.2,119 333.9,118 332.4,116.9 330.7,117.9 				"/>
			</g>
			<path class="st5" d="M356.6,116.1l-15.7-8.1c-0.4,0.1-0.7,0.1-1.1,0.2l14.9,8.5L356.6,116.1z"/>
			<path class="st5" d="M356.6,116.1l-15.7-8.1c-0.4,0.1-0.7,0.1-1.1,0.2l14.9,8.5L356.6,116.1z"/>
			<polygon class="st5" points="308.2,126.2 310.2,125 327.3,133.9 323.4,134.8 			"/>
			<path class="st45" d="M398,138.9c-3.7,1.9-7.4,3.8-10.9,6c-7.3,4.4-14.3,9.2-21.2,14.1l40.3,22.9l33.3-19.2L398,138.9z"/>
			<polygon class="st46" points="407,182.8 438,164.9 438.1,162.4 406.8,180.5 			"/>
			<polygon class="st3" points="405.5,181.3 438.8,162.1 436.7,160.8 403.4,180 			"/>
			<polygon class="st47" points="403.9,179.9 437.2,160.6 435,159.4 401.7,178.6 			"/>
			<polygon class="st5" points="411.3,146.1 377.5,165.6 373.4,146.7 372.5,142.4 371.9,139.7 403.5,122 404.2,124.1 410.3,143.1 
							"/>
			<path class="st39" d="M431,171.6L431,171.6c-0.6-1.1-2.1-1.5-3.2-0.9c-2.8,1.6-7.8,4.5-10.4,6c-1.1,0.6-1.9,1.7-2.3,3l-0.3,1.3
				c-0.5,1.8-1.7,3.4-3.3,4.4l-2,1.1c-0.6,0.4-1,1-1,1.7v1.7c0,0.6,0.6,0.9,1.1,0.7l25.7-14.8c0.6-0.4,1-1,1-1.7v-1.8
				c0-0.6-0.6-0.9-1.1-0.7l-1.6,0.8C432.8,172.9,431.6,172.6,431,171.6z"/>
			<path class="st40" d="M431.9,171.9L431.9,171.9c-0.6-1.1-2.1-1.5-3.2-0.9c-2.8,1.6-7.8,4.5-10.4,6c-1.1,0.6-1.9,1.7-2.3,3
				l-0.3,1.3c-0.5,1.8-1.7,3.4-3.3,4.4l-2,1.1c-0.6,0.4-1,1-1,1.7v1.7c0,0.6,0.6,0.9,1.1,0.7l25.7-14.8c0.6-0.4,1-1,1-1.7v-1.8
				c0-0.6-0.6-0.9-1.1-0.7l-1.6,0.8C433.6,173.2,432.4,172.9,431.9,171.9z"/>
			<path class="st39" d="M410.6,188.5c0-0.3,0.2-0.6,0.4-0.7l2-1.1c1.9-1.1,3.3-3,3.9-5.1l0.3-1.3c0.2-0.9,0.9-1.7,1.7-2.2l10.4-6
				c0.2-0.1,0.4-0.1,0.5-0.1c0.4,0,0.8,0.2,1,0.6c0.6,1,1.7,1.7,2.8,1.7c0.5,0,1-0.1,1.5-0.4l0.9-0.5v1c0,0.3-0.2,0.6-0.4,0.7
				l-25,14.4V188.5z"/>
			<polygon class="st5" points="334.3,116.7 371.9,139.7 377.5,165.6 323.4,134.8 			"/>
			<path class="st48" d="M414.5,174.4l-30.7-13c0,0-5,1.6-5.6,2.8c-0.5,1.1-0.7,1.4-0.7,1.4l28.6,16.3L414.5,174.4z"/>
			<path class="st48" d="M438.7,160.4l-27-14.6c-0.7-0.4-0.6-0.6-1.3-0.3c-1.2,0.4-2.4,1.2-3.1,1.9c-0.4,0.3-1.7,1.3-1.7,1.3
				l25.9,18.2L438.7,160.4z"/>
			<path class="st43" d="M413.5,174.4l-5.7,3.3c-1,0.6-1.7,1.7-1.7,2.9v2.3c0,1,1.1,1.7,2,1.1l5.6-3.3c0.9-0.5,1.4-1.4,1.4-2.4v-3
				C415.2,174.5,414.2,174,413.5,174.4z"/>
			<path class="st43" d="M437.7,160.5l-5.7,3.3c-1,0.6-1.7,1.7-1.7,2.9v2.3c0,1,1.1,1.7,2,1.1l5.6-3.3c0.9-0.5,1.4-1.4,1.4-2.4v-3
				C439.4,160.6,438.4,160,437.7,160.5z"/>
			<g>
				<path class="st49" d="M432.1,169.3c-0.9,0-1.6-0.7-1.6-1.6v-0.5c0-1.2,0.6-2.3,1.7-2.9l4.8-2.8c0.2-0.1,0.5-0.2,0.7-0.2
					c0.8,0,1.4,0.6,1.4,1.4v1c0,1-0.6,2-1.4,2.5l-4.8,2.8C432.7,169.3,432.4,169.3,432.1,169.3L432.1,169.3z"/>
				<path class="st23" d="M437.3,161.9l-4.8,2.8c-0.9,0.5-1.4,1.5-1.4,2.5v0.5c0,0.9,0.9,1.4,1.7,1l4.8-2.8c0.7-0.4,1.2-1.2,1.2-2.1
					v-1C438.7,162,437.9,161.6,437.3,161.9z"/>
				<path class="st50" d="M432.6,165.8c-0.6,0.3-1.1,0.6-1.6,1c0,0.2-0.1,0.3-0.1,0.5v0.5c0,0.9,0.9,1.4,1.7,1l4.8-2.8
					c0.4-0.2,0.7-0.5,0.9-0.9C436.8,164.6,434.7,164.8,432.6,165.8z"/>
				<path class="st51" d="M434.5,165.5c0,0.8-0.6,1.8-1.3,2.2c-0.7,0.4-1.3,0.1-1.3-0.7c0-0.8,0.6-1.8,1.3-2.2
					C433.9,164.4,434.5,164.7,434.5,165.5z"/>
				<path class="st51" d="M437.7,163.7c0,0.8-0.6,1.8-1.3,2.2c-0.7,0.4-1.3,0.1-1.3-0.7c0-0.8,0.6-1.8,1.3-2.2
					C437.1,162.5,437.7,162.9,437.7,163.7z"/>
			</g>
			<path class="st52" d="M411.7,182.2l-0.4,0.2l-2.1,1.2c-0.2,0.1-0.4,0.4-0.4,0.6v1.2v0.2c0,0.2,0.2,0.4,0.4,0.3l2.5-1.4
				c0.2-0.1,0.4-0.4,0.4-0.6v-1.4C412.2,182.2,411.9,182.1,411.7,182.2z"/>
			<path class="st52" d="M436.4,168l-0.4,0.2l-2.1,1.2c-0.2,0.1-0.4,0.4-0.4,0.6v1.2v0.2c0,0.2,0.2,0.4,0.4,0.3l2.5-1.4
				c0.2-0.1,0.4-0.4,0.4-0.6v-1.4C436.8,168,436.6,167.9,436.4,168z"/>
			<path class="st23" d="M386.5,152.6l3.6,3.7l-6,3.5c-1,0.6-2.2,1-3.4,1.1c-0.1,0-0.3,0-0.4,0c-1.5,0-2.8-1-3.2-2.4l-0.5-1.5
				l-3.3-10.4l-1-3.3c-0.1-0.3,0-0.7,0.1-1c0.2-0.3,0.5-0.5,0.9-0.6c0.8-0.1,1.5-0.2,2.2-0.4l10.7,11L386.5,152.6z"/>
			<polygon class="st23" points="406,147.2 398.5,151.5 395.4,148.3 394.2,147 384.4,137 389.7,133.9 391.8,132.7 399,140 
				401.1,142.2 402.1,143.2 			"/>
			<path class="st23" d="M408,135.7l-3.2-3.3l-4.5-4.6l1.9-1.1c0.3-0.2,0.6-0.4,0.8-0.6c0.6-0.5,1-1.2,1.2-2l0,0L408,135.7z"/>
			<path class="st23" d="M354,148.9c-0.6,0.4-1.5,0.4-2.2,0l-3.9-2.2h0v0l-9.3-17.2v-1.7c0-1.7,1.9-2.8,3.4-2l0.8,0.5L354,148.9z"/>
			<path class="st23" d="M336.4,124.7v0.6l-2.2-4c0.1,0,0.2,0.1,0.3,0.1C335.6,122.1,336.4,123.3,336.4,124.7z"/>
			<path class="st23" d="M335.3,139.1c-0.3,0-0.6,0-0.8-0.1l-6.3-3.5c-1.5-0.9-2.1-2.8-1.2-4.3l0.9-1.5l1.1-1.9h0l1.4,2.5
				L335.3,139.1z"/>
			<path class="st23" d="M372.1,160.2L360,136l7.1,4c2.1,1.2,3.5,3.2,4,5.5l2.7,12.7C374.1,159.4,373.1,160.4,372.1,160.2z"/>
			<path class="st48" d="M383.8,161.4l27.4,7.6c2,0.8,4.2,0.6,6-0.4l5.6-3.2c1-0.6,1.1-1.9,0.2-2.6l-17.5-14L383.8,161.4z"/>
			<polygon class="st5" points="378.2,164.2 406.5,179.1 406.1,181.9 377.5,165.6 			"/>
			<path class="st18" d="M404.5,183.4l1.6-1.6L310,126.4c-1.1-0.7-2.5-0.2-3.1,0.7l20.1,9.9L404.5,183.4z"/>
			<path class="st43" d="M315.6,149.8l1.3-3.8c1-1.6,4.4-1.5,6-0.5l8.6,5c1.8,1.1,3.1,2.8,3.6,4.8l0.5,5.9l2.8,1.6l0.4,0.3
				c3.4-3.8,4.8-10.8,1.9-15c-1.4-2.1-3.4-3.8-5.7-5.1l-14.4-7.9c-3.8-2-8.3,0.7-8.3,5v6L315.6,149.8z"/>
			<path class="st20" d="M315.6,149.8l1.3-2.1c1-1.6,3.2-2.1,4.8-1.1l8.6,5c1.8,1.1,3.1,2.8,3.6,4.8l1.1,4.6l3.3,1.9l0,0
				c3.4-3.8,4.1-9.5,1.1-13.7c-1.4-2.1-3.4-3.8-5.7-5.1l-14.4-7.9c-3.8-2-8.3,0.7-8.3,5v6L315.6,149.8z"/>
			<path class="st5" d="M339.6,149.3c-1.4-2.1-3.4-3.8-5.7-5.1l-14.4-7.9c-3.8-2-8.3,0.7-8.3,5v6l1.2,0.7v-6.7
				c0-2.8,2.3-4.5,4.5-4.5c0.7,0,1.4,0.2,2.1,0.5l14.4,7.9c2.1,1.1,3.9,2.7,5.3,4.7c2.3,3.4,2.1,9.4-0.4,12.8l0.3,0.2l0,0
				C341.9,159.2,342.5,153.5,339.6,149.3z"/>
			<path class="st36" d="M391.8,132.7l7.2,7.4l-8-4.6c-0.6-0.3-1-0.9-1.3-1.5L391.8,132.7z"/>
			<path class="st36" d="M404.7,132.4l-4.5-4.6l1.9-1.1c0.3-0.2,0.6-0.4,0.8-0.6c0.4,0.7,0.7,1.5,0.9,2.4L404.7,132.4z"/>
			<path class="st36" d="M329,127.6l1.4,2.5c-0.1,0-0.1,0-0.2,0c-0.1,0-0.3,0-0.4,0c-0.7,0-1.4-0.2-2-0.6L329,127.6L329,127.6z"/>
			<path class="st36" d="M336.4,124.7v0.6l-2.2-4c0.1,0,0.2,0.1,0.3,0.1C335.6,122.1,336.4,123.3,336.4,124.7z"/>
			<path class="st34" d="M390.1,156.3l-6,3.5c-1,0.6-2.2,1-3.4,1.1c-0.1,0-0.3,0-0.4,0c-1.5,0-2.8-1-3.2-2.4l-0.5-1.5l6.6-3.2l3-1.5
				l0.2,0.2L390.1,156.3z"/>
			<polygon class="st34" points="406,147.2 398.5,151.5 395.4,148.3 394.2,147 394.9,145.5 400.2,142.6 401.1,142.2 402.1,143.2 			
				"/>
			<path class="st35" d="M409.9,144.4C409.9,144.4,409.9,144.4,409.9,144.4C409.9,144.4,409.9,144.4,409.9,144.4L409.9,144.4z"/>
			<g>
				<polygon class="st53" points="426.5,173.6 424.8,174.6 424.8,181.2 426.5,180.3 				"/>
				<polygon class="st53" points="420.6,183.7 422.3,182.7 422.3,176.1 420.6,177.1 				"/>
				<path class="st53" d="M416.3,186.2l1.7-1v-6.4c-0.4,0.4-0.7,0.9-0.8,1.5l-0.3,1.3c-0.1,0.5-0.3,1.1-0.6,1.6V186.2z"/>
				<path class="st53" d="M412,187.3v1.4l1.7-1v-1.4c-0.2,0.2-0.5,0.3-0.7,0.5L412,187.3z"/>
				<path class="st53" d="M433.4,174.1v2.2l1.7-1v-1.5c-0.5,0.2-1,0.4-1.5,0.4C433.5,174.1,433.5,174.1,433.4,174.1z"/>
				<path class="st53" d="M430.8,172.5C430.8,172.5,430.8,172.5,430.8,172.5c-0.2-0.4-0.6-0.6-1-0.6c-0.2,0-0.4,0-0.5,0.1l-0.2,0.1
					v6.6l1.7-1V172.5z"/>
			</g>
			<path class="st18" d="M314.4,142.3c0.4-0.8,1-1.5,1.7-1.9c0,0,0,0,0,0c1.3-0.7,2.9-0.6,4.2,0.1c3.8,2,13.7,7.2,13.9,7.3
				c4,2.2,3.8,8.2,3.9,8.1c1.6-5.9-3.8-9.5-4-9.8c-0.1-0.1-14.9-8.1-15.3-8.3c-0.6-0.3-2.6-0.2-3.3,0c-0.8,0.3-1.5,0.6-1.9,1.3
				c-0.2,0.3-0.3,0.6-0.4,0.9c-0.1,0.6-0.3,1.1-0.3,1.7c0,0.3,0,1.6,0.4,1.6c0.4,0,0.6-0.4,0.7-0.7
				C314.3,142.6,314.4,142.5,314.4,142.3z"/>
			<polygon class="st35" points="398.5,151.5 390.1,156.3 386.5,152.6 386.3,152.4 392.2,149.6 393.1,149.1 394.2,147 395.4,148.3 
							"/>
			<path class="st24" d="M394.2,147l-1.1,2.1l-0.9,0.5l-5.9,2.9l-10.7-11c1.2-0.3,2.3-0.8,3.4-1.4l5.3-3.1L394.2,147z"/>
			<path class="st35" d="M409.9,144.3C409.9,144.4,409.9,144.4,409.9,144.3c-0.3,0.5-0.7,0.9-1.2,1.2l-2.8,1.6l-3.8-3.9l-1-1l1-0.4
				l3.2-1.2l1.2,0.1l0.3,0L409.9,144.3z"/>
			<path class="st24" d="M409.9,144.4C409.9,144.4,409.9,144.4,409.9,144.4L409.9,144.4C409.9,144.4,409.9,144.4,409.9,144.4z"/>
			<polygon class="st24" points="402.2,141.8 401.1,142.2 399,140 			"/>
			<polygon class="st54" points="406.5,140.6 405.3,140.6 402.2,141.8 399,140 391.8,132.7 400.3,127.8 404.7,132.4 			"/>
			<path class="st24" d="M410.3,143.1l-0.2,0.7c0,0.2-0.1,0.3-0.2,0.5l-3.1-3.7l-0.3,0l-1.8-8.2l3.2,3.3v0L410.3,143.1z"/>
			<path class="st24" d="M355.2,136.3v10.6c0,0.9-0.5,1.6-1.2,2l-11.2-22.7l9.8,5.6C354.2,132.7,355.2,134.4,355.2,136.3z"/>
			<path class="st24" d="M372.1,160.2c-0.2,0-0.4-0.1-0.6-0.2l-13.2-7.5c-1-0.6-1.6-1.6-1.6-2.8v-13c0-1.2,1.3-2,2.3-1.4l1,0.6
				L372.1,160.2z"/>
			<path class="st37" d="M336.4,125.3v2.1l-2.8,1.6c-1,0.6-2.1,0.9-3.2,1.1l-1.4-2.5l3.3-5.6c0.4-0.7,1.2-0.9,1.9-0.7L336.4,125.3z"
				/>
			<path class="st24" d="M336.4,127.4v10.4c0,0.7-0.5,1.2-1.1,1.3l-4.9-9c1.1-0.1,2.2-0.5,3.2-1.1L336.4,127.4z"/>
			<path class="st24" d="M347.9,146.6l-6.7-3.8c-1.6-0.9-2.6-2.6-2.6-4.5v-8.9L347.9,146.6z"/>
			<g>
				<polygon class="st22" points="374.6,182.9 355.7,172 355.7,132.8 356.2,132.8 356.2,171.7 374.1,182.1 374.1,165.5 375.2,164.1 
					376.1,160.4 370,139.8 370.5,139.7 376.6,160.4 375.6,164.3 374.6,165.7 				"/>
			</g>
			<g>
				<path class="st22" d="M356.2,172.3l-14.3-7.9l0-0.2c0-0.1,0.8-9,0-12.5c-0.7-3.5-5-7.1-5.1-7.1l-0.1-0.1l0.5-2.3l0-20.8h0.5
					v20.9l-0.4,2c0.7,0.6,4.4,3.9,5.1,7.3c0.7,3.4,0.1,11.3,0,12.5l13.3,7.4v-42.5h0.5V172.3z"/>
			</g>
			<path class="st55" d="M358.9,102.3L335,116.1c-1.8,1-1.8,3.6,0,4.6l31.5,18.3c3.7,2.1,8.2,2.1,11.9,0l23.8-13.7
				c1.8-1,1.8-3.6,0-4.6l-31.5-18.3C367.1,100.2,362.6,100.2,358.9,102.3z"/>
			<path class="st9" d="M372.9,138.2c-1.9,0-3.7-0.5-5.4-1.4L336,118.5c-0.7-0.4-0.7-1-0.7-1.3c0-0.3,0.1-0.9,0.7-1.3l23.8-13.7
				c1.6-0.9,3.5-1.4,5.4-1.4c1.9,0,3.7,0.5,5.4,1.4l31.5,18.3c0.7,0.4,0.7,1,0.7,1.3c0,0.3-0.1,0.9-0.7,1.3l-23.8,13.7
				C376.7,137.7,374.8,138.2,372.9,138.2L372.9,138.2z"/>
			<polygon class="st40" points="357.9,158.1 361.7,160.4 361.7,159 357.9,156.7 			"/>
			<polygon class="st40" points="341.2,148 345.1,150.2 345.1,148.8 341.2,146.6 			"/>
			<polygon class="st41" points="403.6,195.8 401.5,195.9 397.1,193.2 395.9,194.1 402.4,199.4 404.3,199.4 441.3,175.4 
				441.2,173.8 439.4,173.3 439.3,175.1 			"/>
			<g>
				<g>
					<polygon class="st40" points="403.4,201.5 441.3,179.6 441.3,175.4 403.4,197.3 					"/>
					<polygon class="st56" points="401.4,197.2 403.4,197.3 403.4,201.5 401.4,201.5 					"/>
				</g>
				<polygon class="st40" points="395.9,194.1 395.9,198.4 401.4,201.5 401.4,197.3 				"/>
			</g>
			<g>
				<path class="st49" d="M407.9,183.3c-0.9,0-1.6-0.7-1.6-1.6v-0.5c0-1.2,0.6-2.3,1.7-2.9l4.8-2.8c0.2-0.1,0.5-0.2,0.7-0.2
					c0.8,0,1.4,0.6,1.4,1.4v1c0,1-0.6,2-1.4,2.5l-4.8,2.8C408.5,183.2,408.2,183.3,407.9,183.3L407.9,183.3z"/>
				<path class="st23" d="M413.1,175.9l-4.8,2.8c-0.9,0.5-1.4,1.5-1.4,2.5v0.5c0,0.9,0.9,1.4,1.7,1l4.8-2.8c0.7-0.4,1.2-1.2,1.2-2.1
					v-1C414.5,176,413.7,175.5,413.1,175.9z"/>
				<path class="st50" d="M408.4,179.8c-0.6,0.3-1.1,0.6-1.6,1c0,0.2-0.1,0.3-0.1,0.5v0.5c0,0.9,0.9,1.4,1.7,1l4.8-2.8
					c0.4-0.2,0.7-0.5,0.9-0.9C412.6,178.5,410.5,178.8,408.4,179.8z"/>
				<path class="st51" d="M410.3,179.5c0,0.8-0.6,1.8-1.3,2.2c-0.7,0.4-1.3,0.1-1.3-0.7c0-0.8,0.6-1.8,1.3-2.2
					C409.7,178.3,410.3,178.7,410.3,179.5z"/>
				<path class="st51" d="M413.5,177.6c0,0.8-0.6,1.8-1.3,2.2c-0.7,0.4-1.3,0.1-1.3-0.7c0-0.8,0.6-1.8,1.3-2.2
					C412.9,176.5,413.5,176.8,413.5,177.6z"/>
			</g>
			<path class="st57" d="M395.7,181.7c0,0.7,0.2,1,0.8,1.3c0.2,0.1,0.4,0.6,0.6,0.6c0,0,0.9-0.4,0.9-0.7c0-0.8-0.4-1.5-1.1-1.9
				c-0.2-0.1-0.4-0.1-0.6,0C396.2,181.1,395.7,181.6,395.7,181.7z"/>
			<path class="st58" d="M397.9,182.5c-0.1-0.5-0.4-1-0.9-1.3l-1.3,1c0,0.1,0.1,0.3,0.2,0.4l0.2,0.2c0.1,0.1,0.2,0.2,0.4,0.2
				c0.1,0,0.1,0.1,0.2,0.2L397.9,182.5z"/>
			<path class="st59" d="M395.6,182.2c0,0.5,0.4,1.2,0.9,1.5c0.5,0.3,0.9,0.1,0.9-0.5c0-0.5-0.4-1.2-0.9-1.5
				C396,181.4,395.6,181.6,395.6,182.2z"/>
			<path class="st60" d="M395.8,182.5c0,0.3,0.2,0.7,0.5,0.9c0.3,0.2,0.5,0,0.5-0.3c0-0.3-0.2-0.7-0.5-0.9
				C396,182,395.8,182.2,395.8,182.5z"/>
			<rect x="308.2" y="144" class="st56" width="2" height="4.3"/>
			<polygon class="st40" points="303.8,141.4 303.8,145.7 308.2,148.3 308.2,144 			"/>
			<path class="st41" d="M306.5,139.8l-2.8,1.6l4.4,2.6h2c-0.2-0.5-3.1-1.9-3.3-2.4C306.7,140.9,306.7,140.6,306.5,139.8z"/>
			<path class="st61" d="M306.8,127.3c-0.2,0.3-0.3,0.7-0.3,1.2v9.2c-0.2-0.2-0.4-0.4-0.6-0.6c-0.4-0.4-0.4-7.5-0.4-8.6
				C305.4,127.7,306.4,127.4,306.8,127.3z"/>
			<g>
				<path d="M360,162.3l-1-0.5v-0.8l2.8,1.6v0.8l-1-0.6v3.3l-0.8-0.5V162.3z"/>
				<path d="M362.7,166l-0.3,0.9l-0.8-0.5l1.1-3.4l1.1,0.6l1.1,4.7l-0.9-0.5l-0.3-1.2L362.7,166z M363.6,165.9l-0.2-1
					c-0.1-0.3-0.1-0.6-0.2-0.9l0,0c-0.1,0.2-0.1,0.5-0.2,0.7l-0.2,0.7L363.6,165.9z"/>
				<path d="M367.1,169.6l-0.3-0.9c-0.1-0.4-0.2-0.6-0.3-0.9l0,0c-0.1,0.2-0.2,0.3-0.3,0.6l-0.3,0.6l-0.9-0.5l1-1.4l-1-2.6l0.9,0.5
					l0.3,0.9c0.1,0.3,0.2,0.5,0.3,0.8l0,0c0.1-0.2,0.2-0.3,0.2-0.5l0.3-0.6l0.9,0.5l-1,1.4l1.1,2.7L367.1,169.6z"/>
				<path d="M369.3,166.8v4l-0.8-0.5v-4L369.3,166.8z"/>
			</g>
			<g>
				<polygon points="343.6,152.2 345.6,153.3 345.6,151.5 343.6,150.4 				"/>
				<polygon points="345.6,155.1 347.5,156.3 347.5,154.5 345.6,153.3 				"/>
				<polygon points="347.5,154.5 349.4,155.6 349.4,153.8 347.5,152.7 				"/>
				<polygon points="349.4,157.4 351.4,158.6 351.4,156.8 349.4,155.6 				"/>
				<polygon points="351.4,156.8 353.3,157.9 353.3,156.1 351.4,155 				"/>
				<polygon points="355.3,159 357.2,160.2 357.2,158.4 355.3,157.2 				"/>
				<polygon points="353.3,159.7 355.3,160.8 355.3,159 353.3,157.9 				"/>
			</g>
			<g>
				<polygon points="371.5,167.5 373.5,168.6 373.5,166.8 371.5,165.7 				"/>
				<polygon points="373.5,170.4 375.4,171.5 375.4,169.7 373.5,168.6 				"/>
				<polygon points="375.4,169.7 377.3,170.9 377.3,169.1 375.4,168 				"/>
				<polygon points="377.3,172.7 379.3,173.8 379.3,172 377.3,170.9 				"/>
				<polygon points="379.3,172 381.2,173.2 381.2,171.4 379.3,170.2 				"/>
			</g>
			<g>
				<polygon points="399.7,164.8 401.8,163.6 400,162.3 397.9,163.5 				"/>
				<polygon points="403.6,164.9 405.7,163.7 403.9,162.4 401.8,163.6 				"/>
				<polygon points="403.9,162.4 405.9,161.2 404.1,159.9 402.1,161.1 				"/>
				<polygon points="407.7,162.5 409.8,161.3 408,160 405.9,161.2 				"/>
				<polygon points="408,160 410.1,158.8 408.3,157.5 406.2,158.7 				"/>
				<polygon points="412.2,157.6 414.3,156.4 412.5,155.1 410.4,156.3 				"/>
				<polygon points="411.9,160.1 414,158.9 412.2,157.6 410.1,158.8 				"/>
			</g>
			<g>
				<polygon class="st28" points="380.1,115.9 375.3,118.7 377,127.1 384.2,122.9 				"/>
				<polygon class="st29" points="364.4,106.7 359.6,109.5 375.3,118.7 380.1,115.9 				"/>
				<polygon class="st30" points="359.6,109.5 355.5,114.5 377,127.1 375.3,118.7 				"/>
				<polygon class="st31" points="356.7,114.3 359.8,110.6 374.6,119.2 375.8,125.5 				"/>
			</g>
			<g>
				<path class="st30" d="M361.3,115.3c-0.1,0-0.3-0.1-0.6-0.2c-0.7-0.4-1.1-1.2-1.1-1.9c0-0.8,0.5-1,1.2-0.6
					c0.3,0.1,0.4,0.3,0.5,0.4l-0.1,0.4c-0.1-0.1-0.2-0.2-0.4-0.3c-0.4-0.2-0.7-0.1-0.7,0.4c0,0.5,0.3,0.9,0.7,1.2
					c0.1,0.1,0.3,0.1,0.4,0.2L361.3,115.3z"/>
				<path class="st30" d="M362.1,113.4v2.4l-0.5-0.3v-2.4L362.1,113.4z"/>
				<path class="st30" d="M362.9,114.4l-0.6-0.3v-0.5l1.7,0.9v0.5l-0.6-0.3v2l-0.5-0.3V114.4z"/>
				<path class="st30" d="M364.8,117.4v-1l-0.7-1.8l0.6,0.3l0.2,0.7c0.1,0.2,0.1,0.4,0.2,0.6l0,0c0-0.1,0.1-0.2,0.2-0.4l0.2-0.5
					l0.5,0.3l-0.7,1v1L364.8,117.4z"/>
				<path class="st30" d="M368.5,119.4c-0.1,0-0.3-0.1-0.6-0.2c-0.7-0.4-1.1-1.2-1.1-1.9c0-0.8,0.5-1,1.2-0.6
					c0.3,0.1,0.4,0.3,0.5,0.4l-0.1,0.4c-0.1-0.1-0.2-0.2-0.4-0.3c-0.4-0.2-0.7-0.1-0.7,0.4c0,0.5,0.3,0.9,0.7,1.2
					c0.1,0.1,0.3,0.1,0.4,0.2L368.5,119.4z"/>
				<path class="st30" d="M369.3,119.4l-0.2,0.5l-0.5-0.3l0.7-2.1l0.6,0.4l0.7,2.8l-0.5-0.3l-0.2-0.7L369.3,119.4z M369.9,119.3
					l-0.1-0.6c0-0.2-0.1-0.4-0.1-0.5l0,0c0,0.1-0.1,0.3-0.1,0.4l-0.1,0.4L369.9,119.3z"/>
				<path class="st30" d="M370.9,118.5c0.1,0,0.4,0.2,0.6,0.3c0.3,0.2,0.5,0.3,0.6,0.5c0.2,0.2,0.3,0.4,0.3,0.6
					c0,0.2-0.1,0.4-0.4,0.3v0c0.2,0.2,0.4,0.5,0.4,0.8c0,0.2-0.1,0.3-0.2,0.4c-0.2,0.1-0.4,0-0.9-0.3c-0.2-0.1-0.4-0.3-0.5-0.3
					V118.5z M371.4,119.7l0.2,0.1c0.3,0.1,0.4,0.1,0.4-0.1c0-0.2-0.1-0.4-0.3-0.5c-0.1-0.1-0.2-0.1-0.2-0.1V119.7z M371.4,120.8
					c0,0,0.1,0.1,0.2,0.1c0.2,0.1,0.4,0.1,0.4-0.1c0-0.2-0.2-0.5-0.4-0.6l-0.2-0.1V120.8z"/>
			</g>
		</g>
	</g>
</g>
</svg>
